<svg xmlns="http://www.w3.org/2000/svg" version="1.1" xmlns:xlink="http://www.w3.org/1999/xlink" xmlns:svgjs="http://svgjs.dev/svgjs" viewBox="0 0 2400 800" opacity="1"><g fill="hsla(213, 29%, 28%, 1.00)" transform="matrix(1,0,0,1,10.1300048828125,187.0009307861328)"><path d="M-10,10C25.416666666666664,15.833333333333334,91.25,49.04166666666667,160,38C228.75,26.958333333333332,253.33333333333331,-43.416666666666664,320,-43C386.6666666666667,-42.583333333333336,413.3333333333333,37.916666666666664,480,40C546.6666666666666,42.083333333333336,573.3333333333334,-35.083333333333336,640,-33C706.6666666666666,-30.916666666666668,733.3333333333334,43.958333333333336,800,50C866.6666666666666,56.041666666666664,893.3333333333334,-6.083333333333334,960,-4C1026.6666666666667,-1.9166666666666665,1053.3333333333333,59.791666666666664,1120,60C1186.6666666666667,60.208333333333336,1213.3333333333333,3.041666666666666,1280,-3C1346.6666666666667,-9.041666666666666,1373.3333333333333,31,1440,31C1506.6666666666667,31,1533.3333333333333,-6.125,1600,-3C1666.6666666666667,0.125,1693.3333333333333,49.125,1760,46C1826.6666666666667,42.875,1853.3333333333333,-22.791666666666668,1920,-18C1986.6666666666667,-13.208333333333332,2013.3333333333333,61.916666666666664,2080,69C2146.6666666666665,76.08333333333333,2173.3333333333335,17.875,2240,16C2306.6666666666665,14.125,2314.5833333333335,-20,2400,60C2485.4166666666665,140,3254.1666666666665,225,2650,400C2045.8333333333335,575,156.25,795.8333333333334,-500,900" transform="matrix(1,0,0,1,0,123)" opacity="0.05"></path><path d="M-10,10C25.416666666666664,15.833333333333334,91.25,49.04166666666667,160,38C228.75,26.958333333333332,253.33333333333331,-43.416666666666664,320,-43C386.6666666666667,-42.583333333333336,413.3333333333333,37.916666666666664,480,40C546.6666666666666,42.083333333333336,573.3333333333334,-35.083333333333336,640,-33C706.6666666666666,-30.916666666666668,733.3333333333334,43.958333333333336,800,50C866.6666666666666,56.041666666666664,893.3333333333334,-6.083333333333334,960,-4C1026.6666666666667,-1.9166666666666665,1053.3333333333333,59.791666666666664,1120,60C1186.6666666666667,60.208333333333336,1213.3333333333333,3.041666666666666,1280,-3C1346.6666666666667,-9.041666666666666,1373.3333333333333,31,1440,31C1506.6666666666667,31,1533.3333333333333,-6.125,1600,-3C1666.6666666666667,0.125,1693.3333333333333,49.125,1760,46C1826.6666666666667,42.875,1853.3333333333333,-22.791666666666668,1920,-18C1986.6666666666667,-13.208333333333332,2013.3333333333333,61.916666666666664,2080,69C2146.6666666666665,76.08333333333333,2173.3333333333335,17.875,2240,16C2306.6666666666665,14.125,2314.5833333333335,-20,2400,60C2485.4166666666665,140,3254.1666666666665,225,2650,400C2045.8333333333335,575,156.25,795.8333333333334,-500,900" transform="matrix(1,0,0,1,0,246)" opacity="1.00"></path></g></svg>